<svg data-v-423bf9ae="" xmlns="http://www.w3.org/2000/svg" viewBox="0 0 938.3592391243867 169" class="iconAbove"><!----><!----><!----><g data-v-423bf9ae="" id="0dda431a-344a-4580-89c0-c5734ae08e13" fill="white" transform="matrix(4.243281367976305,0,0,4.243281367976305,-3.8613905187703494,101.89486603166799)"><path d="M2.87 8.40L6.58 8.40L6.58 6.72L2.87 6.72L2.87 4.55L6.72 4.55L6.72 2.80L0.91 2.80L0.91 12.60L2.87 12.60ZM7.07 9.38C7.07 10.44 7.44 11.28 8.17 11.89C8.90 12.50 9.79 12.81 10.82 12.81C11.86 12.81 12.74 12.50 13.48 11.89C14.21 11.28 14.57 10.44 14.57 9.38C14.57 8.32 14.21 7.48 13.48 6.87C12.74 6.26 11.86 5.95 10.82 5.95C9.79 5.95 8.90 6.26 8.17 6.87C7.44 7.48 7.07 8.32 7.07 9.38ZM8.97 9.38C8.97 8.84 9.14 8.40 9.48 8.06C9.81 7.73 10.26 7.56 10.82 7.56C11.38 7.56 11.83 7.73 12.17 8.06C12.50 8.40 12.67 8.84 12.67 9.38C12.67 9.92 12.50 10.36 12.17 10.70C11.83 11.03 11.38 11.20 10.82 11.20C10.26 11.20 9.81 11.03 9.48 10.70C9.14 10.36 8.97 9.92 8.97 9.38ZM20.03 9.94C20.03 10.49 19.91 10.85 19.66 11.03C19.42 11.20 19.06 11.28 18.61 11.28C18.25 11.28 17.99 11.18 17.83 10.98C17.67 10.77 17.58 10.43 17.58 9.94L17.58 6.16L15.69 6.16L15.69 10.50C15.69 12.00 16.38 12.75 17.77 12.75C18.85 12.75 19.60 12.35 20.03 11.55L20.03 12.60L21.92 12.60L21.92 6.16L20.03 6.16ZM25.49 8.82C25.49 8.38 25.63 8.05 25.90 7.82C26.17 7.59 26.51 7.48 26.92 7.48C27.28 7.48 27.54 7.57 27.70 7.76C27.86 7.95 27.94 8.26 27.94 8.68L27.94 12.60L29.83 12.60L29.83 8.26C29.83 7.57 29.63 7.02 29.23 6.61C28.83 6.21 28.29 6.01 27.62 6.01C26.66 6.01 25.95 6.41 25.49 7.22L25.49 6.16L23.60 6.16L23.60 12.60L25.49 12.60ZM31.09 9.38C31.09 10.50 31.40 11.34 32.02 11.90C32.63 12.46 33.41 12.74 34.36 12.74C35.39 12.74 36.17 12.30 36.69 11.41L36.69 12.60L38.58 12.60L38.58 1.68L36.69 1.68L36.69 7.35C36.17 6.46 35.39 6.02 34.36 6.02C33.41 6.02 32.63 6.30 32.02 6.86C31.40 7.42 31.09 8.26 31.09 9.38ZM33.00 9.38C33.00 8.89 33.17 8.48 33.52 8.17C33.87 7.86 34.31 7.70 34.85 7.70C35.38 7.70 35.82 7.84 36.17 8.11C36.52 8.39 36.69 8.81 36.69 9.38C36.69 9.95 36.52 10.37 36.17 10.65C35.82 10.92 35.38 11.06 34.85 11.06C34.30 11.06 33.85 10.92 33.51 10.63C33.17 10.35 33.00 9.93 33.00 9.38ZM40.77 8.15C40.96 8.01 41.27 7.87 41.67 7.73C42.08 7.59 42.49 7.52 42.90 7.52C43.75 7.52 44.18 7.80 44.18 8.37L44.18 9.02C43.66 8.75 42.99 8.61 42.17 8.61C41.90 8.61 41.62 8.65 41.35 8.72C41.07 8.80 40.80 8.91 40.54 9.07C40.27 9.23 40.05 9.46 39.89 9.75C39.72 10.04 39.63 10.39 39.63 10.78C39.63 11.41 39.86 11.89 40.31 12.23C40.77 12.57 41.39 12.74 42.20 12.74C43.18 12.74 43.84 12.41 44.18 11.75L44.18 12.60L46.07 12.60L46.07 7.98C46.07 7.31 45.79 6.80 45.22 6.46C44.65 6.12 43.88 5.95 42.90 5.95C42.37 5.95 41.87 6.04 41.39 6.22C40.91 6.39 40.52 6.59 40.22 6.80ZM41.54 10.58C41.54 10.08 42.00 9.83 42.92 9.83C43.40 9.83 43.82 9.90 44.18 10.04L44.18 10.08C44.18 10.51 44.04 10.82 43.75 11.03C43.46 11.23 43.08 11.33 42.62 11.33C42.29 11.33 42.03 11.26 41.83 11.13C41.64 11.00 41.54 10.82 41.54 10.58ZM47.96 3.92L47.96 6.16L46.91 6.16L46.91 7.77L47.96 7.77L47.96 12.60L49.85 12.60L49.85 7.77L50.90 7.77L50.90 6.16L49.85 6.16L49.85 3.92ZM51.53 3.61C51.53 3.91 51.65 4.17 51.88 4.38C52.11 4.60 52.38 4.70 52.70 4.70C53.01 4.70 53.29 4.60 53.52 4.38C53.74 4.17 53.86 3.91 53.86 3.61C53.86 3.31 53.74 3.06 53.52 2.84C53.29 2.63 53.01 2.52 52.70 2.52C52.38 2.52 52.11 2.63 51.88 2.84C51.65 3.06 51.53 3.31 51.53 3.61ZM51.73 6.16L51.73 12.60L53.65 12.60L53.65 6.16ZM54.77 9.38C54.77 10.44 55.13 11.28 55.87 11.89C56.60 12.50 57.48 12.81 58.52 12.81C59.56 12.81 60.44 12.50 61.17 11.89C61.91 11.28 62.27 10.44 62.27 9.38C62.27 8.32 61.91 7.48 61.17 6.87C60.44 6.26 59.56 5.95 58.52 5.95C57.48 5.95 56.60 6.26 55.87 6.87C55.13 7.48 54.77 8.32 54.77 9.38ZM56.67 9.38C56.67 8.84 56.84 8.40 57.18 8.06C57.51 7.73 57.96 7.56 58.52 7.56C59.08 7.56 59.53 7.73 59.86 8.06C60.20 8.40 60.37 8.84 60.37 9.38C60.37 9.92 60.20 10.36 59.86 10.70C59.53 11.03 59.08 11.20 58.52 11.20C57.96 11.20 57.51 11.03 57.18 10.70C56.84 10.36 56.67 9.92 56.67 9.38ZM65.28 8.82C65.28 8.38 65.42 8.05 65.69 7.82C65.96 7.59 66.30 7.48 66.71 7.48C67.06 7.48 67.32 7.57 67.49 7.76C67.65 7.95 67.73 8.26 67.73 8.68L67.73 12.60L69.62 12.60L69.62 8.26C69.62 7.57 69.42 7.02 69.02 6.61C68.62 6.21 68.08 6.01 67.41 6.01C66.45 6.01 65.74 6.41 65.28 7.22L65.28 6.16L63.39 6.16L63.39 12.60L65.28 12.60ZM79.39 3.71L80.11 2.20C79.99 2.03 79.77 1.88 79.47 1.74C79.17 1.61 78.82 1.54 78.41 1.54C77.57 1.54 76.93 1.76 76.47 2.19C76.01 2.63 75.78 3.20 75.78 3.92L75.78 6.16L74.87 6.16L74.87 7.77L75.78 7.77L75.78 12.60L77.67 12.60L77.67 7.77L79.28 7.77L79.28 6.16L77.67 6.16L77.67 4.27C77.67 3.91 77.75 3.64 77.90 3.47C78.06 3.30 78.25 3.22 78.48 3.22C78.89 3.22 79.20 3.38 79.39 3.71ZM79.83 9.38C79.83 10.44 80.19 11.28 80.93 11.89C81.66 12.50 82.54 12.81 83.58 12.81C84.62 12.81 85.50 12.50 86.23 11.89C86.97 11.28 87.33 10.44 87.33 9.38C87.33 8.32 86.97 7.48 86.23 6.87C85.50 6.26 84.62 5.95 83.58 5.95C82.54 5.95 81.66 6.26 80.93 6.87C80.19 7.48 79.83 8.32 79.83 9.38ZM81.73 9.38C81.73 8.84 81.90 8.40 82.24 8.06C82.57 7.73 83.02 7.56 83.58 7.56C84.14 7.56 84.59 7.73 84.92 8.06C85.26 8.40 85.43 8.84 85.43 9.38C85.43 9.92 85.26 10.36 84.92 10.70C84.59 11.03 84.14 11.20 83.58 11.20C83.02 11.20 82.57 11.03 82.24 10.70C81.90 10.36 81.73 9.92 81.73 9.38ZM92.64 8.15L93.60 6.64C93.26 6.22 92.74 6.01 92.05 6.01C91.42 6.01 90.87 6.35 90.41 7.03L90.41 6.16L88.45 6.16L88.45 12.60L90.41 12.60L90.41 9.02C90.41 8.57 90.50 8.26 90.69 8.09C90.87 7.91 91.16 7.83 91.56 7.83C91.98 7.83 92.34 7.93 92.64 8.15ZM100.74 8.40L104.45 8.40L104.45 6.72L100.74 6.72L100.74 4.55L104.59 4.55L104.59 2.80L98.78 2.80L98.78 12.60L100.74 12.60ZM105.85 3.61C105.85 3.91 105.97 4.17 106.20 4.38C106.43 4.60 106.70 4.70 107.02 4.70C107.33 4.70 107.61 4.60 107.84 4.38C108.06 4.17 108.18 3.91 108.18 3.61C108.18 3.31 108.06 3.06 107.84 2.84C107.61 2.63 107.33 2.52 107.02 2.52C106.70 2.52 106.43 2.63 106.20 2.84C105.97 3.06 105.85 3.31 105.85 3.61ZM106.05 6.16L106.05 12.60L107.97 12.60L107.97 6.16ZM113.83 8.15L114.80 6.64C114.45 6.22 113.94 6.01 113.25 6.01C112.61 6.01 112.07 6.35 111.61 7.03L111.61 6.16L109.65 6.16L109.65 12.60L111.61 12.60L111.61 9.02C111.61 8.57 111.70 8.26 111.88 8.09C112.06 7.91 112.35 7.83 112.76 7.83C113.18 7.83 113.54 7.93 113.83 8.15ZM120.23 8.62L117.11 8.62C117.18 8.22 117.38 7.91 117.70 7.69C118.02 7.46 118.37 7.35 118.76 7.35C119.62 7.35 120.11 7.77 120.23 8.62ZM117.10 9.87L122.19 9.87C122.21 9.69 122.22 9.49 122.22 9.25C122.22 8.25 121.91 7.44 121.28 6.85C120.66 6.25 119.82 5.95 118.76 5.95C117.69 5.95 116.82 6.27 116.15 6.92C115.48 7.57 115.15 8.39 115.15 9.38C115.15 10.38 115.47 11.19 116.11 11.81C116.75 12.43 117.63 12.74 118.76 12.74C120.40 12.74 121.52 12.10 122.14 10.82L120.34 10.42C120.05 10.99 119.53 11.27 118.76 11.27C117.81 11.27 117.25 10.80 117.10 9.87ZM128.04 8.15C128.24 8.01 128.54 7.87 128.95 7.73C129.35 7.59 129.76 7.52 130.17 7.52C131.03 7.52 131.46 7.80 131.46 8.37L131.46 9.02C130.94 8.75 130.27 8.61 129.44 8.61C129.17 8.61 128.90 8.65 128.63 8.72C128.35 8.80 128.08 8.91 127.81 9.07C127.55 9.23 127.33 9.46 127.16 9.75C126.99 10.04 126.91 10.39 126.91 10.78C126.91 11.41 127.14 11.89 127.59 12.23C128.04 12.57 128.67 12.74 129.47 12.74C130.45 12.74 131.11 12.41 131.46 11.75L131.46 12.60L133.35 12.60L133.35 7.98C133.35 7.31 133.07 6.80 132.50 6.46C131.93 6.12 131.15 5.95 130.17 5.95C129.65 5.95 129.15 6.04 128.67 6.22C128.19 6.39 127.80 6.59 127.50 6.80ZM128.81 10.58C128.81 10.08 129.28 9.83 130.20 9.83C130.68 9.83 131.10 9.90 131.46 10.04L131.46 10.08C131.46 10.51 131.32 10.82 131.03 11.03C130.74 11.23 130.36 11.33 129.89 11.33C129.57 11.33 129.30 11.26 129.11 11.13C128.91 11.00 128.81 10.82 128.81 10.58ZM136.92 8.82C136.92 8.38 137.06 8.05 137.33 7.82C137.60 7.59 137.94 7.48 138.35 7.48C138.70 7.48 138.96 7.57 139.13 7.76C139.29 7.95 139.37 8.26 139.37 8.68L139.37 12.60L141.26 12.60L141.26 8.26C141.26 7.57 141.06 7.02 140.66 6.61C140.26 6.21 139.72 6.01 139.05 6.01C138.09 6.01 137.38 6.41 136.92 7.22L136.92 6.16L135.03 6.16L135.03 12.60L136.92 12.60ZM142.52 9.38C142.52 10.50 142.83 11.34 143.44 11.90C144.06 12.46 144.84 12.74 145.78 12.74C146.82 12.74 147.60 12.30 148.12 11.41L148.12 12.60L150.01 12.60L150.01 1.68L148.12 1.68L148.12 7.35C147.60 6.46 146.82 6.02 145.78 6.02C144.84 6.02 144.06 6.30 143.44 6.86C142.83 7.42 142.52 8.26 142.52 9.38ZM144.42 9.38C144.42 8.89 144.60 8.48 144.95 8.17C145.30 7.86 145.74 7.70 146.27 7.70C146.80 7.70 147.25 7.84 147.60 8.11C147.95 8.39 148.12 8.81 148.12 9.38C148.12 9.95 147.95 10.37 147.60 10.65C147.25 10.92 146.80 11.06 146.27 11.06C145.72 11.06 145.28 10.92 144.94 10.63C144.59 10.35 144.42 9.93 144.42 9.38ZM155.96 2.80L155.96 12.60L161.77 12.60L161.77 10.85L157.92 10.85L157.92 2.80ZM162.40 3.61C162.40 3.91 162.51 4.17 162.74 4.38C162.97 4.60 163.24 4.70 163.56 4.70C163.88 4.70 164.15 4.60 164.38 4.38C164.61 4.17 164.72 3.91 164.72 3.61C164.72 3.31 164.61 3.06 164.38 2.84C164.15 2.63 163.88 2.52 163.56 2.52C163.24 2.52 162.97 2.63 162.74 2.84C162.51 3.06 162.40 3.31 162.40 3.61ZM162.60 6.16L162.60 12.60L164.51 12.60L164.51 6.16ZM170.09 3.71L170.80 2.20C170.68 2.03 170.47 1.88 170.16 1.74C169.86 1.61 169.51 1.54 169.11 1.54C168.27 1.54 167.62 1.76 167.16 2.19C166.70 2.63 166.47 3.20 166.47 3.92L166.47 6.16L165.56 6.16L165.56 7.77L166.47 7.77L166.47 12.60L168.36 12.60L168.36 7.77L169.97 7.77L169.97 6.16L168.36 6.16L168.36 4.27C168.36 3.91 168.44 3.64 168.60 3.47C168.75 3.30 168.94 3.22 169.18 3.22C169.59 3.22 169.89 3.38 170.09 3.71ZM175.60 8.62L172.48 8.62C172.55 8.22 172.75 7.91 173.07 7.69C173.39 7.46 173.74 7.35 174.13 7.35C174.99 7.35 175.48 7.77 175.60 8.62ZM172.47 9.87L177.56 9.87C177.58 9.69 177.59 9.49 177.59 9.25C177.59 8.25 177.28 7.44 176.65 6.85C176.03 6.25 175.19 5.95 174.13 5.95C173.06 5.95 172.19 6.27 171.52 6.92C170.85 7.57 170.52 8.39 170.52 9.38C170.52 10.38 170.84 11.19 171.48 11.81C172.12 12.43 173.00 12.74 174.13 12.74C175.77 12.74 176.89 12.10 177.51 10.82L175.71 10.42C175.42 10.99 174.90 11.27 174.13 11.27C173.18 11.27 172.62 10.80 172.47 9.87ZM184.00 9.16L182.49 10.25C182.81 11.07 183.30 11.71 183.97 12.18C184.63 12.65 185.43 12.88 186.35 12.88C188.70 12.88 189.87 11.85 189.87 9.80C189.87 9.38 189.78 8.99 189.61 8.63C189.44 8.27 189.20 7.97 188.91 7.71C188.61 7.46 188.33 7.26 188.07 7.10C187.80 6.94 187.52 6.80 187.22 6.68C187.09 6.62 186.88 6.54 186.59 6.43C186.30 6.33 186.10 6.24 185.98 6.19C185.87 6.13 185.72 6.05 185.56 5.94C185.39 5.84 185.27 5.72 185.21 5.59C185.15 5.46 185.12 5.30 185.12 5.12C185.12 4.90 185.22 4.72 185.42 4.57C185.62 4.43 185.90 4.35 186.24 4.35C186.70 4.35 187.07 4.47 187.36 4.69C187.65 4.91 187.91 5.25 188.15 5.68L189.59 4.56C189.36 3.99 188.99 3.50 188.45 3.11C187.92 2.72 187.23 2.52 186.37 2.52C185.42 2.52 184.63 2.76 184.02 3.25C183.41 3.73 183.11 4.38 183.11 5.18C183.11 6.46 183.94 7.44 185.60 8.12C185.62 8.13 185.64 8.14 185.67 8.15C185.70 8.16 185.72 8.17 185.74 8.18C185.76 8.19 185.78 8.19 185.81 8.20C186.13 8.33 186.38 8.44 186.56 8.53C186.74 8.62 186.93 8.74 187.14 8.88C187.34 9.02 187.49 9.18 187.59 9.37C187.68 9.56 187.73 9.79 187.73 10.04C187.73 10.74 187.29 11.09 186.41 11.09C185.87 11.09 185.40 10.93 185.02 10.63C184.63 10.32 184.29 9.83 184.00 9.16ZM191.63 8.15C191.83 8.01 192.13 7.87 192.53 7.73C192.94 7.59 193.35 7.52 193.76 7.52C194.62 7.52 195.05 7.80 195.05 8.37L195.05 9.02C194.53 8.75 193.85 8.61 193.03 8.61C192.76 8.61 192.49 8.65 192.21 8.72C191.94 8.80 191.67 8.91 191.40 9.07C191.13 9.23 190.92 9.46 190.75 9.75C190.58 10.04 190.50 10.39 190.50 10.78C190.50 11.41 190.72 11.89 191.18 12.23C191.63 12.57 192.26 12.74 193.06 12.74C194.04 12.74 194.70 12.41 195.05 11.75L195.05 12.60L196.94 12.60L196.94 7.98C196.94 7.31 196.65 6.80 196.08 6.46C195.51 6.12 194.74 5.95 193.76 5.95C193.24 5.95 192.74 6.04 192.25 6.22C191.77 6.39 191.38 6.59 191.09 6.80ZM192.40 10.58C192.40 10.08 192.86 9.83 193.79 9.83C194.26 9.83 194.68 9.90 195.05 10.04L195.05 10.08C195.05 10.51 194.90 10.82 194.61 11.03C194.32 11.23 193.95 11.33 193.48 11.33C193.15 11.33 192.89 11.26 192.70 11.13C192.50 11.00 192.40 10.82 192.40 10.58ZM202.51 3.71L203.22 2.20C203.10 2.03 202.89 1.88 202.59 1.74C202.28 1.61 201.93 1.54 201.53 1.54C200.69 1.54 200.04 1.76 199.58 2.19C199.13 2.63 198.90 3.20 198.90 3.92L198.90 6.16L197.99 6.16L197.99 7.77L198.90 7.77L198.90 12.60L200.79 12.60L200.79 7.77L202.40 7.77L202.40 6.16L200.79 6.16L200.79 4.27C200.79 3.91 200.86 3.64 201.02 3.47C201.17 3.30 201.37 3.22 201.60 3.22C202.01 3.22 202.31 3.38 202.51 3.71ZM208.03 8.62L204.90 8.62C204.98 8.22 205.17 7.91 205.49 7.69C205.81 7.46 206.16 7.35 206.56 7.35C207.41 7.35 207.90 7.77 208.03 8.62ZM204.89 9.87L209.99 9.87C210.00 9.69 210.01 9.49 210.01 9.25C210.01 8.25 209.70 7.44 209.08 6.85C208.45 6.25 207.61 5.95 206.56 5.95C205.48 5.95 204.61 6.27 203.94 6.92C203.28 7.57 202.94 8.39 202.94 9.38C202.94 10.38 203.26 11.19 203.90 11.81C204.54 12.43 205.43 12.74 206.56 12.74C208.19 12.74 209.31 12.10 209.93 10.82L208.14 10.42C207.85 10.99 207.32 11.27 206.56 11.27C205.60 11.27 205.05 10.80 204.89 9.87ZM211.34 3.92L211.34 6.16L210.29 6.16L210.29 7.77L211.34 7.77L211.34 12.60L213.23 12.60L213.23 7.77L214.28 7.77L214.28 6.16L213.23 6.16L213.23 3.92ZM214.35 6.16L217.27 12.17L215.75 15.68L217.85 15.68L222.05 6.16L219.95 6.16L218.27 10.36L216.59 6.16Z"></path></g><!----><g data-v-423bf9ae="" id="27a24a2b-6900-4f9a-b7eb-fe8ee3473251" transform="matrix(1.0297222561306423,0,0,1.0297222561306423,419.1125760732358,-3.845385929812373)" stroke="none" fill="white"><path d="M27.984 42.838C45.23 25.729 47.746 11.361 41.939 4.395c0 0 43.898 18.04 18.077 59.882-4.42 7.105-15.459 15.498-9.688 32.793-.001 0-55.236-15.465-22.344-54.232z"></path><path d="M54.645 96.217c-.944-3.51-5.154-11.154 7.686-26.359 6.861-8.104 11.557-25.906 9.27-30.157 0 0 21.914 28.944-3.447 46.278-15.037 10.304-13.509 10.238-13.509 10.238z"></path></g><!----></svg>