<svg data-v-fde0c5aa="" xmlns="http://www.w3.org/2000/svg" viewBox="0 0 300 300" class="icon"><!----><defs data-v-fde0c5aa=""><!----></defs><rect data-v-fde0c5aa="" fill="#F6E7DC" x="0" y="0" width="300px" height="300px" class="logo-background-square"></rect><!----><defs data-v-fde0c5aa=""><linearGradient data-v-fde0c5aa="" gradientTransform="rotate(25)" id="36ae8d75-f824-4ab3-9317-92c32c10b0f0" x1="0%" y1="0%" x2="100%" y2="0%"><stop data-v-fde0c5aa="" offset="0%" stop-color="#792300" stop-opacity="1"></stop><stop data-v-fde0c5aa="" offset="100%" stop-color="#F37000" stop-opacity="1"></stop></linearGradient></defs><g data-v-fde0c5aa="" id="8b0ec6a7-8f7c-43c2-9037-837daaab9721" fill="url(#36ae8d75-f824-4ab3-9317-92c32c10b0f0)" stroke="none" transform="matrix(2.3738871621847455,0,0,2.3738871621847455,33.76946534884299,29.566765967476364)"><path d="M27.984 42.838C45.23 25.729 47.746 11.361 41.939 4.395c0 0 43.898 18.04 18.077 59.882-4.42 7.105-15.459 15.498-9.688 32.793-.001 0-55.236-15.465-22.344-54.232z"></path><path d="M54.645 96.217c-.944-3.51-5.154-11.154 7.686-26.359 6.861-8.104 11.557-25.906 9.27-30.157 0 0 21.914 28.944-3.447 46.278-15.037 10.304-13.509 10.238-13.509 10.238z"></path></g><!----></svg>